# AST/ASF file generated using VICON BodyLanguage
# -----------------------------------------------
:version 1.10
:name VICON
:units
  mass 1.0
  length 0.45
  angle deg
:documentation
   .ast/.asf automatically generated from VICON data using
   VICON BodyBuilder and BodyLanguage model FoxedUp or BRILLIANT.MOD
:root
   order TX TY TZ RX RY RZ
   axis XYZ
   position 0 0 0  
   orientation 0 0 0 
:bonedata
  begin
     id 1 
     name lhipjoint
     direction 0.716248 -0.617586 0.324924 
     length 2.63557 
     axis 0 0 0  XYZ
  end
  begin
     id 2 
     name lfemur
     direction 0.34202 -0.939693 0  
     length 7.01235  
     axis 0 0 20  XYZ
    dof rx ry rz
    limits (-160.0 20.0)
           (-70.0 70.0)
           (-60.0 70.0)
  end
  begin
     id 3 
     name ltibia
     direction 0.34202 -0.939693 0   
     length 8.14348   
     axis 0 0 20   XYZ
    dof rx
    limits (-10.0 170.0)
  end
  begin
     id 4 
     name lfoot
     direction 0.0982064 -0.26982 0.95789   
     length 1.99077   
     axis -90 7.62852e-016 20   XYZ
    dof rx rz
    limits (-45.0 90.0)
           (-70.0 20.0)
  end
  begin
     id 5 
     name ltoes
     direction 1.53511e-011 -4.21891e-011 1   
     length 0.99735   
     axis -90 7.62852e-016 20   XYZ
    dof rx
    limits (-90.0 20.0)
  end
  begin
     id 6 
     name rhipjoint
     direction -0.687828 -0.642391 0.337975   
     length 2.5338  
     axis 0 0 0  XYZ 
  end
  begin
     id 7 
     name rfemur
     direction -0.34202 -0.939693 0   
     length 6.90199   
     axis 0 0 -20   XYZ
    dof rx ry rz
    limits (-160.0 20.0)
           (-70.0 70.0)
           (-70.0 60.0)
  end
  begin
     id 8 
     name rtibia
     direction -0.34202 -0.939693 0   
     length 8.07725   
     axis 0 0 -20   XYZ
    dof rx
    limits (-10.0 170.0)
 end
 begin
     id 9 
     name rfoot
     direction -0.0912384 -0.250675 0.963762   
     length 2.11621  
     axis -90 -7.62852e-016 -20   XYZ
    dof rx rz
    limits (-45.0 90.0)
           (-20.0 70.0)
  end
  begin
     id 10 
     name rtoes
     direction -1.5359e-011 -4.21894e-011 1   
     length 1.06031   
     axis -90 -7.62852e-016 -20   XYZ
    dof rx
    limits (-90.0 20.0)
  end
  begin
     id 11 
     name lowerback
     direction -0.0403572 0.987953 -0.149396   
     length 2.05637   
     axis 0 0 0   XYZ
    dof rx ry rz
    limits (-20.0 45.0)
           (-30.0 30.0)
           (-30.0 30.0)
  end
  begin
     id 12 
     name upperback
     direction -0.00512151 0.997598 0.0690792   
     length 2.01086   
     axis 0 0 0   XYZ
    dof rx ry rz
    limits (-20.0 45.0)
           (-30.0 30.0)
           (-30.0 30.0)
  end
  begin
     id 13 
     name thorax
     direction 0.0136133 0.989392 0.14463   
     length 2.09035   
     axis 0 0 0   XYZ
    dof rx ry rz
    limits (-20.0 45.0)
           (-30.0 30.0)
           (-30.0 30.0)
  end
  begin
     id 14 
     name lowerneck
     direction 0.0250714 0.992811 0.11704   
     length 1.70806   
     axis 0 0 0   XYZ
    dof rx ry rz
    limits (-20.0 45.0)
           (-30.0 30.0)
           (-30.0 30.0)
  end
  begin
     id 15 
     name upperneck
     direction -0.0519205 0.998394 -0.0226787   
     length 1.6689   
     axis 0 0 0   XYZ
    dof rx ry rz
    limits (-20.0 45.0)
           (-30.0 30.0)
           (-30.0 30.0)
  end
  begin
     id 16
     name head
     direction -0.0201693 0.999547 -0.0223192  
     length 1.83412  
     axis 0 0 0   XYZ
    dof rx ry rz
    limits (-20.0 45.0)
           (-30.0 30.0)
           (-30.0 30.0)
  end
  begin
     id 17 
     name lclavicle
     direction 0.89585 0.444077 -0.0157448  
     length 3.39587  
     axis 0 0 0   XYZ
    dof ry rz
    limits (-20.0 10.0)
           (0.0 20.0)
  end
  begin
     id 18 
     name lhumerus
     direction 1 -4.48956e-011 1.99132e-028   
     length 5.79199   
     axis 180 -30 -90   XYZ
    dof rx ry rz
    limits (-60.0 90.0)
           (-90.0 90.0)
           (-90.0 90.0)
  end
  begin
     id 19
     name lradius
     direction 1 -4.48974e-011 8.72912e-028   
     length 3.49908   
     axis 180 -30 -90   XYZ
    dof rx
    limits (-10.0 170.0)
  end
  begin
     id 20
     name lwrist
     direction 1 -4.48994e-011 4.76442e-027   
     length 1.74954   
     axis -3.27502e-015 90 90   XYZ
    dof ry
    limits (-180.0 0.0)
 end
  begin
     id 21 
     name lhand
     direction 1 -4.48945e-011 9.531e-027   
     length 0.593861   
     axis -6.08098e-015 90 90   XYZ
    dof rx rz
    limits (-90.0 90.0)
           (-45.0 45.0)
  end
  begin
     id 22 
     name lfingers
     direction 1 -4.48945e-011 1.9062e-026   
     length 0.478786   
     axis -1.21619e-014 90 90   XYZ
    dof rx
    limits (0.0 90.0)
  end
  begin
     id 23
     name lthumb
     direction 0.707107 -6.34904e-011 0.707107   
     length 0.687444   
     axis -90 45 -9.86923e-015   XYZ
    dof rx rz
    limits (-45.0 45.0)
           (-45.0 45.0)
  end
  begin
     id 24 
     name rclavicle
     direction -0.940466 0.338394 0.0318182   
     length 3.51226  
     axis 0 0 0   XYZ 
    dof ry rz
    limits (-10.0 20.0)
           (-20.0 0.0)
  end
  begin
     id 25 
     name rhumerus
     direction -1 -4.48976e-011 2.0905e-027  
     length 5.73799   
     axis 180 30 90   XYZ
    dof rx ry rz
    limits (-90.0 60.0)
           (-90.0 90.0)
           (-90.0 90.0)
  end
  begin
     id 26 
     name rradius
     direction -1 -4.48968e-011 -9.39692e-029   
     length 3.57916   
     axis 180 30 90   XYZ
    dof rx
    limits (-10.0 170.0)
  end
  begin
     id 27 
     name rwrist
     direction -1 -4.48959e-011 4.7652e-027   
     length 1.78958   
     axis -3.27502e-015 -90 -90   XYZ
    dof ry
    limits (-180.0 0.0)
  end
  begin
     id 28
     name rhand
     direction -1 -4.49042e-011 9.5267e-027   
     length 0.615577   
     axis -6.08098e-015 -90 -90   XYZ
    dof rx rz
    limits (-90.0 90.0)
           (-45.0 45.0)
  end
  begin
     id 29
     name rfingers
     direction -1 -4.48935e-011 1.90629e-026   
     length 0.496294   
     axis -1.21619e-014 -90 -90   XYZ
    dof rx
    limits (0.0 90.0)
  end
  begin
     id 30
     name rthumb
     direction -0.707107 -6.34977e-011 0.707107   
     length 0.712582   
     axis -90 -45 9.86923e-015   XYZ
    dof rx rz
    limits (-45.0 45.0)
           (-45.0 45.0)
  end
:hierarchy
  begin
    root lhipjoint rhipjoint lowerback
    lhipjoint lfemur
    lfemur ltibia
    ltibia lfoot
    lfoot ltoes
    rhipjoint rfemur
    rfemur rtibia
    rtibia rfoot
    rfoot rtoes
    lowerback upperback
    upperback thorax
    thorax lowerneck lclavicle rclavicle
    lowerneck upperneck
    upperneck head
    lclavicle lhumerus
    lhumerus lradius
    lradius lwrist
    lwrist lhand lthumb
    lhand lfingers
    rclavicle rhumerus
    rhumerus rradius
    rradius rwrist
    rwrist rhand rthumb
    rhand rfingers
  end

#!OML:ASF H:\Terrain\Patient Classification 1\PaulMetrics\March17Take5\PaulMetrics.ASF
:FULLY-SPECIFIED
:DEGREES
377
root 8.52531 17.9376 27.299 6.44242 81.6286 -0.0229663
lowerback 0.877796 -0.639084 -5.82411
upperback -2.69727 -0.994558 -1.01284
thorax -3.19827 -0.344447 2.25128
lowerneck 1.09437 11.8442 10.4809
upperneck 6.77828 17.2507 -15.1465
head 4.07495 8.53149 -5.44763
rclavicle -6.21202e-015 -7.15625e-015
rhumerus -53.6102 6.60885 -91.0716
rradius 40.573
rwrist -11.2458
rhand -17.4671 -31.3163
rfingers 7.12502
rthumb 8.78456 -61.1135
lclavicle -6.21202e-015 -7.15625e-015
lhumerus -42.9901 -17.9547 88.4897
lradius 72.1153
lwrist 26.1669
lhand -14.587 -20.0453
lfingers 7.12502
lthumb 11.5631 9.61576
rfemur -23.8217 15.0912 4.79336
rtibia 33.062
rfoot -10.5444 0.0220983
rtoes 2.41514
lfemur -11.2335 -16.6972 -18.4161
ltibia 31.7599
lfoot -12.5391 -19.0666
ltoes 10.8339
378
root 8.54774 17.9531 27.3995 10.2357 82.7381 3.53583
lowerback 0.814166 -0.678271 -6.45208
upperback -2.70269 -1.05516 -1.04059
thorax -3.15639 -0.358474 2.57407
lowerneck 1.29918 12.0602 10.4512
upperneck 6.58155 17.5536 -15.2454
head 4.02877 8.69244 -5.46202
rclavicle 1.05356e-014 1.74931e-014
rhumerus -53.512 7.60999 -91.5444
rradius 40.4948
rwrist -11.3347
rhand -16.6393 -31.4959
rfingers 7.12502
rthumb 9.58333 -61.2579
lclavicle 1.05356e-014 1.74931e-014
lhumerus -42.85 -17.2469 88.1834
lradius 72.0139
lwrist 26.1878
lhand -14.7426 -20.7973
lfingers 7.12502
lthumb 11.413 8.87212
rfemur -23.6775 14.3972 4.88406
rtibia 33.3966
rfoot -10.583 -1.08073
rtoes -2.29044
lfemur -11.4048 -16.2229 -18.4735
ltibia 31.4565
lfoot -12.1051 -18.8921
ltoes 11.6535
379
root 8.56563 17.9627 27.5055 9.01216 83.9602 2.02052
lowerback 0.826793 -0.759885 -6.43604
upperback -2.717 -1.16192 -0.834695
thorax -3.16482 -0.409652 2.78183
lowerneck 1.77766 12.2502 10.0766
upperneck 5.95911 17.7875 -15.4059
head 3.77642 8.83556 -5.48313
rclavicle -7.0817e-015 -1.35174e-014
rhumerus -53.3498 8.57921 -91.9465
rradius 40.2119
rwrist -11.3369
rhand -16.1168 -31.3184
rfingers 7.12502
rthumb 10.0875 -61.0566
lclavicle -7.0817e-015 -1.35174e-014
lhumerus -42.849 -16.561 87.9342
lradius 72.0794
lwrist 26.486
lhand -14.9233 -21.3643
lfingers 7.12502
lthumb 11.2387 8.31462
rfemur -23.5148 14.0648 5.74095
rtibia 33.6872
rfoot -10.8151 -2.57006
rtoes -18.028
lfemur -11.6849 -15.6109 -17.7404
ltibia 31.2208
lfoot -12.5265 -18.5079
ltoes 7.28642
380
root 8.58314 17.9639 27.6083 10.2406 85.1825 2.99198
lowerback 0.939566 -0.723473 -6.43597
upperback -2.73704 -1.12315 -0.862416
thorax -3.25371 -0.387149 2.75376
lowerneck 1.67622 12.4583 10.0377
upperneck 6.04743 18.0873 -15.4174
head 3.85668 8.97607 -5.4428
rclavicle -2.54444e-014 -2.3059e-014
rhumerus -53.1898 9.05782 -92.258
rradius 39.9589
rwrist -11.229
rhand -16.482 -31.3257
rfingers 7.12502
rthumb 9.73514 -61.0807
lclavicle -2.54444e-014 -2.3059e-014
lhumerus -42.7473 -16.116 87.6218
lradius 72.2165
lwrist 26.9417
lhand -15.214 -21.1951
lfingers 7.12502
lthumb 10.9583 8.49892
rfemur -23.268 13.7323 6.2754
rtibia 33.8078
rfoot -12.2115 -3.67074
rtoes -9.5975
lfemur -12.0161 -15.4106 -17.2802
ltibia 31.1433
lfoot -12.5384 -18.1736
ltoes 5.6385
381
root 8.60401 17.9762 27.704 9.98125 86.4066 2.51261
lowerback 1.0222 -0.54046 -6.06969
upperback -2.70987 -0.877975 -1.01279
thorax -3.30051 -0.275622 2.38616
lowerneck 1.23716 12.5979 10.3275
upperneck 6.47652 18.2937 -15.2774
head 4.098 9.05396 -5.3782
rclavicle 8.94531e-015 1.59028e-015
rhumerus -53.0673 9.22169 -92.5973
rradius 39.8794
rwrist -11.2072
rhand -17.143 -31.3381
rfingers 7.12502
rthumb 9.09739 -61.1219
lclavicle 8.94531e-015 1.59028e-015
lhumerus -42.5033 -16.0765 87.2581
lradius 72.2708
lwrist 27.0507
lhand -15.0349 -21.3202
lfingers 7.12502
lthumb 11.1311 8.36461
rfemur -22.9 13.4286 6.92077
rtibia 33.7505
rfoot -12.7096 -4.7228
rtoes -6.88329
lfemur -12.3828 -15.3711 -16.7392
ltibia 31.1713
lfoot -12.5427 -17.7128
ltoes 4.94306
382
root 8.62356 17.9994 27.7997 6.48994 87.6442 -1.13591
lowerback 1.04269 -0.311265 -5.66319
upperback -2.6177 -0.562387 -1.09865
thorax -3.24545 -0.133984 2.05901
lowerneck 1.12363 12.6683 10.6209
upperneck 6.36545 18.3628 -15.2959
head 4.12164 9.08934 -5.4113
rclavicle -7.45443e-015 1.98785e-014
rhumerus -52.8933 9.21935 -92.6715
rradius 39.8117
rwrist -10.9624
rhand -16.8563 -31
rfingers 7.12502
rthumb 9.37402 -60.7716
lclavicle -7.45443e-015 1.98785e-014
lhumerus -42.1821 -16.1519 87.0127
lradius 72.0919
lwrist 27.0307
lhand -14.6402 -21.8423
lfingers 7.12502
lthumb 11.5117 7.82161
rfemur -22.4725 13.0886 7.71538
rtibia 33.6755
rfoot -13.0271 -5.76833
rtoes -7.71575
lfemur -12.6565 -15.1483 -16.1213
ltibia 31.1271
lfoot -12.995 -16.9818
ltoes 1.37436
383
root 8.64684 18.0235 27.8925 4.01305 88.8775 -3.74497
lowerback 0.997759 -0.212461 -5.52442
upperback -2.51233 -0.420803 -1.10281
thorax -3.12178 -0.0726377 1.97179
lowerneck 1.61115 12.8165 9.73532
upperneck 5.84618 18.4999 -14.9552
head 3.78913 9.18319 -5.22484
rclavicle -8.94531e-016 -2.78299e-014
rhumerus -52.6526 9.46063 -92.5245
rradius 39.6849
rwrist -10.3163
rhand -15.789 -30.773
rfingers 7.12502
rthumb 10.4037 -60.4956
lclavicle -8.94531e-016 -2.78299e-014
lhumerus -42.0067 -15.7382 86.8979
lradius 71.9263
lwrist 27.184
lhand -15.5194 -21.6382
lfingers 7.12502
lthumb 10.6638 8.07118
rfemur -22.0181 12.7868 8.27961
rtibia 33.5958
rfoot -13.4158 -6.75158
rtoes -9.40995
lfemur -12.8443 -14.9306 -15.6797
ltibia 31.0397
lfoot -13.32 -16.4887
ltoes -0.821594
